<svg width="1541" height="405" viewBox="0 0 1541 405" fill="none" xmlns="http://www.w3.org/2000/svg">
<path d="M270.835 353.548C293.694 353.548 302.233 379.445 281.181 388.353C257.091 398.547 230.613 404.202 202.819 404.246H202.166C150.947 404.165 104.197 385.03 68.6244 353.548H270.835Z" fill="#0040E4"/>
<path d="M387.818 282.857C379.749 301.365 368.987 318.427 356.03 333.554H48.9566C35.9997 318.427 25.238 301.365 17.1689 282.857H387.818Z" fill="#0040E4"/>
<path d="M404.342 211.809C403.51 229.519 400.398 246.632 395.293 262.863H9.69147C4.58705 246.632 1.47624 229.519 0.644531 211.809H404.342Z" fill="#0040E4"/>
<path d="M395.181 141.122C400.317 157.35 403.462 174.463 404.325 192.176H0.659962C1.5226 174.463 4.6673 157.35 9.8039 141.122H395.181Z" fill="#0040E4"/>
<path d="M356.028 70.7831C368.985 85.9103 379.746 102.973 387.816 121.48H17.1711C25.2404 102.973 36.0016 85.9103 48.9588 70.7831H356.028Z" fill="#0040E4"/>
<path d="M202.492 0.0917969C254.164 0.0917969 301.304 19.4877 337.035 51.3931H133.037C110.232 51.3931 101.628 25.5413 122.57 16.5136C147.082 5.94644 174.103 0.0919105 202.492 0.0917969Z" fill="#0040E4"/>
<path d="M587.873 133.65L571.724 89.9385L555.483 133.65H587.873ZM597.339 158.336H546.017L534.602 189.704H504.162L556.504 56.6213H586.852L639.194 189.704H608.754L597.339 158.336Z" fill="black"/>
<path d="M709.548 108.964L696.277 124.091C695.906 123.596 695.287 122.915 694.421 122.049C693.616 121.183 691.884 120.069 689.224 118.708C686.563 117.285 683.841 116.574 681.057 116.574C677.53 116.574 674.746 117.347 672.704 118.894C670.663 120.379 669.642 122.111 669.642 124.091C669.642 126.504 671.096 128.515 674.003 130.123C676.911 131.732 680.438 133.186 684.583 134.485C688.79 135.723 693.029 137.238 697.298 139.033C701.567 140.765 705.155 143.611 708.063 147.571C710.971 151.469 712.425 156.325 712.425 162.141C712.425 170.494 709.115 177.485 702.495 183.115C695.936 188.745 686.903 191.56 675.396 191.56C670.446 191.56 665.744 190.973 661.289 189.797C656.834 188.622 653.215 187.199 650.431 185.528C647.647 183.858 645.203 182.218 643.099 180.609C641.058 178.939 639.573 177.547 638.645 176.433L637.345 174.484L651.637 160.285C652.132 161.027 652.906 161.986 653.958 163.162C655.071 164.276 657.36 165.822 660.825 167.802C664.29 169.72 667.878 170.679 671.591 170.679C675.674 170.679 678.737 169.906 680.778 168.359C682.882 166.75 683.934 164.678 683.934 162.141C683.934 159.604 682.48 157.501 679.572 155.83C676.664 154.098 673.075 152.613 668.806 151.376C664.537 150.076 660.299 148.53 656.092 146.735C651.947 144.941 648.42 142.157 645.512 138.383C642.604 134.609 641.15 129.845 641.15 124.091C641.15 116.605 644.615 109.83 651.545 103.766C658.536 97.7032 667.105 94.6715 677.252 94.6715C683.686 94.6715 689.595 95.878 694.978 98.291C700.422 100.704 704.196 103.055 706.3 105.344L709.548 108.964Z" fill="black"/>
<path d="M750.483 96.5277V189.704H724.776V96.5277H750.483ZM748.255 59.5911C750.978 62.1896 752.339 65.6544 752.339 69.9853C752.339 74.2543 750.978 77.6881 748.255 80.2867C745.533 82.8853 741.821 84.1845 737.119 84.1845C732.788 84.1845 729.323 82.8853 726.724 80.2867C724.188 77.6881 722.919 74.2543 722.919 69.9853C722.919 65.6544 724.219 62.1896 726.817 59.5911C729.416 56.9925 732.85 55.6932 737.119 55.6932C741.821 55.6932 745.533 56.9925 748.255 59.5911Z" fill="black"/>
<path d="M819.909 189.704V180.238C819.166 181.104 818.114 182.187 816.753 183.486C815.454 184.724 812.577 186.394 808.122 188.498C803.668 190.54 799.027 191.56 794.201 191.56C784.921 191.56 777.373 188.993 771.557 183.858C765.741 178.661 762.833 172.381 762.833 165.018C762.833 157.408 765.277 151.066 770.165 145.993C775.053 140.92 781.796 137.61 790.396 136.063L819.909 130.773C819.909 126.875 818.486 123.689 815.64 121.214C812.793 118.739 808.834 117.502 803.76 117.502C799.553 117.502 795.717 118.306 792.253 119.915C788.788 121.461 786.344 123.07 784.921 124.741L782.786 126.968L768.587 112.769C768.958 112.274 769.453 111.624 770.072 110.82C770.753 109.954 772.207 108.5 774.434 106.458C776.723 104.416 779.198 102.622 781.858 101.075C784.519 99.4665 788.014 98.0125 792.345 96.7133C796.676 95.3521 801.1 94.6715 805.617 94.6715C817.372 94.6715 826.962 98.1982 834.386 105.251C841.811 112.243 845.523 121.059 845.523 131.701V189.704H819.909ZM800.883 170.679C806.699 170.679 811.309 168.854 814.711 165.204C818.176 161.492 819.909 156.356 819.909 149.798V146.921L799.027 150.726C792.036 151.84 788.54 155.335 788.54 161.213C788.54 167.524 792.655 170.679 800.883 170.679Z" fill="black"/>
<path d="M968.227 133.65L952.078 89.9385L935.837 133.65H968.227ZM977.693 158.336H926.371L914.956 189.704H884.516L936.858 56.6213H967.206L1019.55 189.704H989.108L977.693 158.336Z" fill="black"/>
<path d="M1051.94 56.6213V189.704H1026.24V56.6213H1051.94Z" fill="black"/>
<path d="M1096.68 56.6213V189.704H1070.98V56.6213H1096.68Z" fill="black"/>
<path d="M1141.42 96.5277V189.704H1115.72V96.5277H1141.42ZM1139.2 59.5911C1141.92 62.1896 1143.28 65.6544 1143.28 69.9853C1143.28 74.2543 1141.92 77.6881 1139.2 80.2867C1136.47 82.8853 1132.76 84.1845 1128.06 84.1845C1123.73 84.1845 1120.26 82.8853 1117.67 80.2867C1115.13 77.6881 1113.86 74.2543 1113.86 69.9853C1113.86 65.6544 1115.16 62.1896 1117.76 59.5911C1120.36 56.9925 1123.79 55.6932 1128.06 55.6932C1132.76 55.6932 1136.47 56.9925 1139.2 59.5911Z" fill="black"/>
<path d="M1210.85 189.704V180.238C1210.11 181.104 1209.06 182.187 1207.69 183.486C1206.4 184.724 1203.52 186.394 1199.06 188.498C1194.61 190.54 1189.97 191.56 1185.14 191.56C1175.86 191.56 1168.31 188.993 1162.5 183.858C1156.68 178.661 1153.77 172.381 1153.77 165.018C1153.77 157.408 1156.22 151.066 1161.11 145.993C1165.99 140.92 1172.74 137.61 1181.34 136.063L1210.85 130.773C1210.85 126.875 1209.43 123.689 1206.58 121.214C1203.73 118.739 1199.78 117.502 1194.7 117.502C1190.49 117.502 1186.66 118.306 1183.19 119.915C1179.73 121.461 1177.29 123.07 1175.86 124.741L1173.73 126.968L1159.53 112.769C1159.9 112.274 1160.39 111.624 1161.01 110.82C1161.69 109.954 1163.15 108.5 1165.38 106.458C1167.66 104.416 1170.14 102.622 1172.8 101.075C1175.46 99.4665 1178.96 98.0125 1183.29 96.7133C1187.62 95.3521 1192.04 94.6715 1196.56 94.6715C1208.31 94.6715 1217.9 98.1982 1225.33 105.251C1232.75 112.243 1236.46 121.059 1236.46 131.701V189.704H1210.85ZM1191.82 170.679C1197.64 170.679 1202.25 168.854 1205.65 165.204C1209.12 161.492 1210.85 156.356 1210.85 149.798V146.921L1189.97 150.726C1182.98 151.84 1179.48 155.335 1179.48 161.213C1179.48 167.524 1183.6 170.679 1191.82 170.679Z" fill="black"/>
<path d="M1279.25 96.5277V107.943C1280 106.953 1281.05 105.746 1282.41 104.323C1283.77 102.838 1286.74 100.859 1291.32 98.3838C1295.96 95.909 1300.82 94.6715 1305.89 94.6715C1316.53 94.6715 1325.19 98.3528 1331.88 105.715C1338.62 113.078 1341.99 123.008 1341.99 135.506V189.704H1316.38V138.383C1316.38 132.691 1314.68 128.112 1311.27 124.648C1307.93 121.121 1303.6 119.358 1298.28 119.358C1292.46 119.358 1287.82 121.276 1284.36 125.112C1280.96 128.886 1279.25 134.269 1279.25 141.26V189.704H1253.64V96.5277H1279.25Z" fill="black"/>
<path d="M1368.26 177.083C1358.3 167.369 1353.32 156.047 1353.32 143.116C1353.32 130.185 1358.3 118.894 1368.26 109.242C1378.22 99.5284 1390.04 94.6715 1403.71 94.6715C1408.54 94.6715 1413.12 95.3521 1417.45 96.7133C1421.84 98.0125 1425.43 99.5902 1428.22 101.446C1431 103.241 1433.47 105.066 1435.64 106.922C1437.8 108.778 1439.38 110.387 1440.37 111.748L1441.76 113.697L1425.62 129.845C1425.12 128.979 1424.29 127.834 1423.11 126.411C1422 124.988 1419.52 123.163 1415.69 120.936C1411.91 118.646 1407.92 117.502 1403.71 117.502C1396.97 117.502 1391.15 120.007 1386.27 125.019C1381.44 130.03 1379.03 136.094 1379.03 143.209C1379.03 150.262 1381.47 156.294 1386.36 161.306C1391.25 166.317 1397.03 168.823 1403.71 168.823C1407.92 168.823 1411.91 167.802 1415.69 165.761C1419.52 163.719 1422.31 161.677 1424.04 159.635L1426.54 156.48L1441.76 172.628C1441.39 173.123 1440.87 173.835 1440.19 174.763C1439.57 175.629 1438.08 177.145 1435.73 179.31C1433.38 181.414 1430.84 183.301 1428.12 184.971C1425.4 186.58 1421.84 188.096 1417.45 189.519C1413.12 190.88 1408.54 191.56 1403.71 191.56C1390.04 191.56 1378.22 186.735 1368.26 177.083Z" fill="black"/>
<path d="M1539.68 151.654H1472.21C1473.2 156.727 1475.89 161.027 1480.29 164.554C1484.68 168.019 1490.22 169.751 1496.9 169.751C1501.72 169.751 1506.18 168.823 1510.26 166.967C1514.41 165.049 1517.32 163.131 1518.99 161.213L1521.68 158.336L1534.95 175.412L1533.28 177.083C1532.47 177.887 1530.8 179.217 1528.27 181.073C1525.73 182.93 1523.04 184.6 1520.19 186.085C1517.35 187.508 1513.63 188.776 1509.06 189.89C1504.54 191.004 1499.87 191.56 1495.04 191.56C1481.37 191.56 1469.71 186.827 1460.05 177.361C1450.4 167.833 1445.58 156.418 1445.58 143.116C1445.58 129.814 1450.34 118.43 1459.87 108.964C1469.4 99.4356 1480.81 94.6715 1494.11 94.6715C1507.42 94.6715 1518.49 99.1262 1527.34 108.036C1536.19 116.883 1540.61 127.958 1540.61 141.26L1539.68 151.654ZM1507.85 121.4C1504.14 118.182 1499.56 116.574 1494.11 116.574C1488.67 116.574 1484.03 118.151 1480.19 121.307C1476.42 124.462 1473.76 128.576 1472.21 133.65H1515C1514.01 128.7 1511.62 124.617 1507.85 121.4Z" fill="black"/>
<path d="M567.718 355.021H507.395V221.938H564.47C576.535 221.938 586.496 225.465 594.354 232.518C602.273 239.571 606.233 247.769 606.233 257.111C606.233 260.638 605.738 264.01 604.748 267.227C603.758 270.383 602.49 273.012 600.943 275.116C599.396 277.219 597.849 279.044 596.302 280.591C594.818 282.076 593.58 283.128 592.59 283.747L591.013 284.675C591.631 284.922 592.405 285.293 593.333 285.788C594.323 286.221 596.086 287.366 598.623 289.222C601.159 291.016 603.387 292.996 605.305 295.162C607.223 297.327 608.955 300.297 610.502 304.071C612.11 307.783 612.915 311.774 612.915 316.043C612.915 326.685 608.677 335.841 600.2 343.513C591.724 351.185 580.897 355.021 567.718 355.021ZM535.979 331.263H566.326C571.523 331.263 575.823 329.623 579.226 326.344C582.691 323.065 584.423 319.013 584.423 314.187C584.423 309.361 582.691 305.308 579.226 302.029C575.823 298.688 571.523 297.018 566.326 297.018H535.979V331.263ZM562.521 245.696H535.979V274.28H562.521C567.223 274.28 570.936 272.981 573.658 270.383C576.38 267.784 577.741 264.319 577.741 259.988C577.741 255.658 576.38 252.193 573.658 249.594C570.936 246.996 567.223 245.696 562.521 245.696Z" fill="black"/>
<path d="M677.608 355.021V345.555C676.865 346.421 675.813 347.504 674.452 348.803C673.153 350.041 670.276 351.711 665.821 353.815C661.367 355.856 656.726 356.877 651.9 356.877C642.62 356.877 635.072 354.31 629.256 349.174C623.44 343.977 620.532 337.698 620.532 330.335C620.532 322.725 622.976 316.383 627.864 311.31C632.752 306.236 639.495 302.926 648.095 301.38L677.608 296.09C677.608 292.192 676.185 289.006 673.339 286.531C670.492 284.056 666.533 282.819 661.459 282.819C657.252 282.819 653.416 283.623 649.951 285.232C646.487 286.778 644.043 288.387 642.62 290.057L640.485 292.285L626.286 278.086C626.657 277.591 627.152 276.941 627.771 276.137C628.452 275.27 629.906 273.816 632.133 271.775C634.422 269.733 636.897 267.939 639.557 266.392C642.218 264.783 645.713 263.329 650.044 262.03C654.375 260.669 658.799 259.988 663.315 259.988C675.071 259.988 684.661 263.515 692.085 270.568C699.51 277.56 703.222 286.376 703.222 297.018V355.021H677.608ZM658.582 335.996C664.398 335.996 669.008 334.171 672.41 330.521C675.875 326.808 677.608 321.673 677.608 315.115V312.238L656.726 316.043C649.735 317.157 646.239 320.652 646.239 326.53C646.239 332.841 650.354 335.996 658.582 335.996Z" fill="black"/>
<path d="M746.013 261.845V273.26C746.755 272.27 747.807 271.063 749.168 269.64C750.529 268.155 753.499 266.175 758.077 263.701C762.718 261.226 767.574 259.988 772.648 259.988C783.289 259.988 791.951 263.67 798.633 271.032C805.377 278.395 808.749 288.325 808.749 300.823V355.021H783.135V303.7C783.135 298.008 781.433 293.429 778.03 289.965C774.689 286.438 770.359 284.675 765.038 284.675C759.222 284.675 754.582 286.593 751.117 290.429C747.714 294.203 746.013 299.585 746.013 306.577V355.021H720.398V261.845H746.013Z" fill="black"/>
<path d="M863.79 318.92L852.468 332.191V355.021H826.761V221.938H852.468V299.895L885.692 261.845H915.112L880.031 301.844L917.061 355.021H888.569L863.79 318.92Z" fill="black"/>
</svg>
